<?xml version="1.0" encoding="UTF-8"?>
<svg id="Capa_1" data-name="Capa 1" xmlns="http://www.w3.org/2000/svg" xmlns:xlink="http://www.w3.org/1999/xlink" viewBox="0 0 128.77 148.33">
  <defs>
    <style>
      .cls-1 {
        fill: #a61b1a;
      }

      .cls-2 {
        fill: #5e100f;
      }

      .cls-3 {
        fill: none;
      }

      .cls-4 {
        clip-path: url(#clippath-1);
      }

      .cls-5 {
        isolation: isolate;
      }

      .cls-6 {
        fill: #621010;
      }

      .cls-7 {
        stroke-width: .52px;
      }

      .cls-7, .cls-8, .cls-9 {
        fill: #fff;
        stroke: #000;
        stroke-miterlimit: 10;
      }

      .cls-8 {
        stroke-width: .47px;
      }

      .cls-10 {
        clip-path: url(#clippath-2);
      }

      .cls-9 {
        stroke-width: .49px;
      }

      .cls-11 {
        clip-path: url(#clippath);
      }
    </style>
    <clipPath id="clippath">
      <path class="cls-3" d="M84.56,70.12l.66-.22c.3-.1.64-.15,1.03-.15,1.88,0,2.52,1.12,2.73,2.61l-.66.22c-.22-1.48-.86-2.61-2.73-2.61-.39,0-.74.05-1.03.15Z"/>
    </clipPath>
    <clipPath id="clippath-1">
      <path class="cls-3" d="M87.9,83.85l-.66.22c1.04-.35,1.43-1.17,1.43-2.22,0-1.83-.97-2.57-3.54-3.39-4.1-1.3-5.5-2.96-5.51-5.86s1.5-4.66,3.69-5.39l.66-.22c-2.19.73-3.69,2.57-3.69,5.39s1.41,4.56,5.51,5.86c2.56.82,3.53,1.57,3.54,3.39,0,1.06-.39,1.87-1.43,2.22Z"/>
    </clipPath>
    <clipPath id="clippath-2">
      <path class="cls-3" d="M89.19,86.8l-.66.22c-.78.26-1.69.4-2.74.4-3.86,0-6.37-2.21-6.59-6.18l.66-.22c.22,3.97,2.73,6.18,6.59,6.18,1.05,0,1.96-.14,2.74-.4Z"/>
    </clipPath>
  </defs>
  <g>
    <polygon class="cls-8" points="128.34 25.02 115 39.75 105.91 27.37 119.26 12.64 128.34 25.02"/>
    <polygon class="cls-7" points="17.89 40.77 .36 25.09 8.37 11.63 25.9 27.32 17.89 40.77"/>
    <rect class="cls-9" x=".25" y=".25" width="25.38" height="24.78"/>
    <rect class="cls-9" x="35.92" y=".25" width="25.38" height="24.78"/>
    <rect class="cls-9" x="70.35" y=".25" width="25.38" height="24.78"/>
    <rect class="cls-9" x="103.15" y=".25" width="25.38" height="24.78"/>
    <path class="cls-9" d="M115.18,148.09H16.76c0-22.88,0-73.32,0-123.05h98.42v123.05Z"/>
    <line class="cls-9" x1="16.75" y1="39.8" x2="115.18" y2="39.76"/>
    <line class="cls-9" x1="16.76" y1="59.96" x2="115.18" y2="59.73"/>
    <line class="cls-9" x1="16.59" y1="90.56" x2="115.18" y2="91.19"/>
    <line class="cls-9" x1="16.76" y1="104.39" x2="115.18" y2="103.59"/>
    <line class="cls-9" x1="16.76" y1="120" x2="115.18" y2="119.09"/>
    <line class="cls-9" x1="16.76" y1="132.48" x2="115.18" y2="132.68"/>
    <line class="cls-9" x1="45.73" y1="25.03" x2="45.83" y2="39.7"/>
    <line class="cls-9" x1="80.65" y1="25.03" x2="80.79" y2="39.6"/>
    <line class="cls-9" x1=".26" y1="12.24" x2="25.62" y2="12.24"/>
    <line class="cls-9" x1="9.63" y1=".38" x2="9.49" y2="12.24"/>
    <line class="cls-9" x1="35.92" y1="13.34" x2="61.31" y2="13.26"/>
    <line class="cls-9" x1="46.67" y1=".66" x2="46.88" y2="13.22"/>
    <line class="cls-9" x1="70.35" y1="12.64" x2="95.48" y2="13.11"/>
    <line class="cls-9" x1="82.7" y1=".12" x2="82.89" y2="12.62"/>
    <line class="cls-9" x1="103.15" y1="13.22" x2="128.26" y2="13.88"/>
    <line class="cls-9" x1="115.84" y1=".25" x2="115.7" y2="13.55"/>
    <line class="cls-9" x1="28.69" y1="39.7" x2="28.82" y2="59.73"/>
    <line class="cls-9" x1="61.5" y1="39.8" x2="61.78" y2="59.94"/>
    <line class="cls-9" x1="98.18" y1="39.75" x2="98.18" y2="59.94"/>
    <line class="cls-9" x1="98.18" y1="73.57" x2="115.18" y2="73.97"/>
    <line class="cls-9" x1="98.18" y1="90.9" x2="98.18" y2="73.57"/>
    <line class="cls-9" x1="16.76" y1="74.65" x2="31.94" y2="74.65"/>
    <line class="cls-9" x1="31.74" y1="90.66" x2="31.74" y2="74.43"/>
    <line class="cls-9" x1="31.41" y1="104.29" x2="31.41" y2="119.93"/>
    <line class="cls-9" x1="60.82" y1="104.39" x2="61.09" y2="119.16"/>
    <line class="cls-9" x1="97.87" y1="103.79" x2="97.87" y2="119.16"/>
    <line class="cls-9" x1="43.01" y1="120" x2="42.68" y2="132.22"/>
    <line class="cls-9" x1="96.48" y1="132.65" x2="96.48" y2="147.82"/>
    <line class="cls-9" x1=".25" y1="25.03" x2="16.75" y2="39.8"/>
    <line class="cls-9" x1="115.18" y1="39.76" x2="128.52" y2="25.03"/>
  </g>
  <g>
    <g class="cls-5">
      <polygon class="cls-2" points="50.67 70.27 50.01 70.49 42 70.49 42.66 70.27 50.67 70.27"/>
      <polygon class="cls-2" points="50.36 78.2 49.7 78.42 42 78.42 42.66 78.2 50.36 78.2"/>
      <polygon class="cls-2" points="50.73 86.94 50.07 87.16 38.49 87.16 39.15 86.94 50.73 86.94"/>
      <polygon class="cls-2" points="39.15 86.94 38.49 87.16 38.47 67.11 39.13 66.89 39.15 86.94"/>
      <polygon class="cls-1" points="50.67 66.89 50.67 70.27 42.66 70.27 42.66 74.81 50.35 74.81 50.36 78.2 42.66 78.2 42.67 83.59 51.16 83.59 50.73 86.94 39.15 86.94 39.13 66.89 50.67 66.89"/>
    </g>
    <g class="cls-5">
      <polygon class="cls-2" points="71.8 70.28 71.14 70.5 66.34 70.5 67 70.28 71.8 70.28"/>
      <polygon class="cls-2" points="63.36 70.28 62.7 70.5 57.9 70.5 58.57 70.28 63.36 70.28"/>
      <polygon class="cls-2" points="58.57 70.28 57.9 70.5 57.9 67.11 58.56 66.89 58.57 70.28"/>
      <polygon class="cls-2" points="63.38 86.94 62.72 87.16 62.7 70.5 63.36 70.28 63.38 86.94"/>
      <polygon class="cls-2" points="67.02 86.94 66.36 87.16 62.72 87.16 63.38 86.94 67.02 86.94"/>
      <polygon class="cls-1" points="71.8 66.89 71.8 70.28 67 70.28 67.02 86.94 63.38 86.94 63.36 70.28 58.57 70.28 58.56 66.89 71.8 66.89"/>
    </g>
    <g class="cls-5">
      <polygon class="cls-2" points="92.54 72.36 91.88 72.58 88.33 72.58 88.99 72.36 92.54 72.36"/>
      <g class="cls-5">
        <g class="cls-11">
          <g class="cls-5">
            <path class="cls-6" d="M88.99,72.36l-.66.22c-.22-1.48-.86-2.61-2.73-2.61-.39,0-.74.05-1.03.15l.66-.22c.3-.1.64-.15,1.03-.15,1.88,0,2.52,1.12,2.73,2.61"/>
          </g>
        </g>
      </g>
      <g class="cls-5">
        <g class="cls-4">
          <g class="cls-5">
            <path class="cls-6" d="M87.9,83.85l-.66.22c1.04-.35,1.43-1.17,1.43-2.22,0-1.83-.97-2.57-3.54-3.39-4.1-1.3-5.5-2.96-5.51-5.86s1.5-4.66,3.69-5.39l.66-.22c-2.19.73-3.69,2.57-3.69,5.39s1.41,4.56,5.51,5.86c2.56.82,3.53,1.57,3.54,3.39,0,1.06-.39,1.87-1.43,2.22"/>
          </g>
        </g>
      </g>
      <g class="cls-5">
        <g class="cls-10">
          <g class="cls-5">
            <path class="cls-6" d="M89.19,86.8l-.66.22c-.78.26-1.69.4-2.74.4-3.86,0-6.37-2.21-6.59-6.18l.66-.22c.22,3.97,2.73,6.18,6.59,6.18,1.05,0,1.96-.14,2.74-.4"/>
          </g>
        </g>
      </g>
      <path class="cls-1" d="M86.28,66.63c4.25,0,6.05,2.5,6.26,5.72h-3.55c-.22-1.48-.86-2.61-2.73-2.61-1.59,0-2.37.84-2.37,2.23,0,1.49.89,1.92,3.4,2.74,4.52,1.49,5.71,3.54,5.71,6.42,0,3.27-1.91,6.07-6.55,6.07-3.86,0-6.37-2.21-6.59-6.18h3.57c.25,1.82,1.3,3.01,3.18,3.01,2.02,0,2.72-.99,2.72-2.4,0-1.83-.97-2.57-3.54-3.39-4.1-1.3-5.5-2.96-5.51-5.86,0-3.72,2.62-5.74,5.99-5.74Z"/>
    </g>
  </g>
</svg>