<?xml version="1.0" encoding="UTF-8"?>
<svg id="Capa_1" data-name="Capa 1" xmlns="http://www.w3.org/2000/svg" xmlns:xlink="http://www.w3.org/1999/xlink" viewBox="0 0 151.21 83.29">
  <defs>
    <style>
      .cls-1 {
        stroke-width: .14px;
      }

      .cls-1, .cls-2, .cls-3 {
        stroke: #000;
      }

      .cls-1, .cls-2, .cls-3, .cls-4, .cls-5 {
        stroke-miterlimit: 10;
      }

      .cls-1, .cls-2, .cls-3, .cls-5 {
        fill: #fff;
      }

      .cls-6 {
        clip-path: url(#clippath-21);
      }

      .cls-7 {
        clip-path: url(#clippath-6);
      }

      .cls-8 {
        clip-path: url(#clippath-7);
      }

      .cls-9 {
        clip-path: url(#clippath-17);
      }

      .cls-10 {
        clip-path: url(#clippath-15);
      }

      .cls-11 {
        fill: #202466;
      }

      .cls-12 {
        clip-path: url(#clippath-18);
      }

      .cls-13 {
        clip-path: url(#clippath-4);
      }

      .cls-14 {
        clip-path: url(#clippath-22);
      }

      .cls-15 {
        clip-path: url(#clippath-23);
      }

      .cls-16 {
        fill: #373eb3;
      }

      .cls-17 {
        fill: #a61b1a;
      }

      .cls-18 {
        fill: #5e100f;
      }

      .cls-19 {
        clip-path: url(#clippath-9);
      }

      .cls-20 {
        clip-path: url(#clippath-10);
      }

      .cls-21 {
        clip-path: url(#clippath-25);
      }

      .cls-22 {
        clip-path: url(#clippath-11);
      }

      .cls-23, .cls-4 {
        fill: none;
      }

      .cls-2 {
        stroke-width: .14px;
      }

      .cls-3 {
        stroke-width: .13px;
      }

      .cls-24 {
        clip-path: url(#clippath-1);
      }

      .cls-4 {
        stroke-width: 8.19px;
      }

      .cls-4, .cls-5 {
        stroke: #bc1f1e;
      }

      .cls-25 {
        isolation: isolate;
      }

      .cls-26 {
        clip-path: url(#clippath-5);
      }

      .cls-27 {
        clip-path: url(#clippath-20);
      }

      .cls-28 {
        clip-path: url(#clippath-8);
      }

      .cls-29 {
        fill: #621010;
      }

      .cls-30 {
        clip-path: url(#clippath-3);
      }

      .cls-31 {
        clip-path: url(#clippath-12);
      }

      .cls-32 {
        clip-path: url(#clippath-14);
      }

      .cls-33 {
        clip-path: url(#clippath-19);
      }

      .cls-5 {
        stroke-width: 8.66px;
      }

      .cls-34 {
        fill: #21256a;
      }

      .cls-35 {
        clip-path: url(#clippath-16);
      }

      .cls-36 {
        clip-path: url(#clippath-2);
      }

      .cls-37 {
        clip-path: url(#clippath-13);
      }

      .cls-38 {
        clip-path: url(#clippath-24);
      }

      .cls-39 {
        clip-path: url(#clippath);
      }
    </style>
    <clipPath id="clippath">
      <path class="cls-23" d="M82.39,17.14l.19-.06c.09-.03.19-.04.3-.04.55,0,.73.31.79.72l-.19.06c-.06-.4-.24-.72-.79-.72-.12,0-.22.02-.3.04Z"/>
    </clipPath>
    <clipPath id="clippath-1">
      <path class="cls-23" d="M83.37,20.94l-.19.06c.29-.1.4-.32.4-.61,0-.5-.29-.71-1.03-.94l.19-.06c.74.23,1.02.44,1.03.94,0,.29-.11.51-.4.61Z"/>
    </clipPath>
    <clipPath id="clippath-2">
      <path class="cls-23" d="M82.01,16.34l.19-.06c-.62.21-1.04.71-1.04,1.49s.41,1.27,1.59,1.62l-.19.06c-1.19-.35-1.59-.82-1.59-1.62s.42-1.28,1.04-1.49Z"/>
    </clipPath>
    <clipPath id="clippath-3">
      <path class="cls-23" d="M83.76,21.75l-.19.06c-.23.08-.5.12-.82.12-1.12,0-1.85-.61-1.92-1.71l.19-.06c.06,1.1.79,1.71,1.92,1.71.31,0,.59-.04.82-.12Z"/>
    </clipPath>
    <clipPath id="clippath-4">
      <path class="cls-23" d="M32.53,45.67l.12-.06c.14-.07.32-.1.53-.1l-.12.06c-.21,0-.39.04-.53.1Z"/>
    </clipPath>
    <clipPath id="clippath-5">
      <path class="cls-23" d="M32.25,50.48l.12-.06c.18-.09.41-.1.63-.1l-.12.06c-.22,0-.45,0-.63.1Z"/>
    </clipPath>
    <clipPath id="clippath-6">
      <path class="cls-23" d="M30.37,41.71l.12-.06c-1.33.67-2.23,2.16-2.23,3.66l-.12.06c0-1.5.89-3,2.23-3.66Z"/>
    </clipPath>
    <clipPath id="clippath-7">
      <path class="cls-23" d="M32.61,56.03l-.12.06c-.17,0-.31,0-.44,0l.12-.06c.14,0,.28,0,.44,0Z"/>
    </clipPath>
    <clipPath id="clippath-8">
      <path class="cls-23" d="M32.17,56.03l-.12.06c-.18,0-.36,0-.58-.05l.12-.06c.23.04.4.05.58.05Z"/>
    </clipPath>
    <clipPath id="clippath-9">
      <path class="cls-23" d="M31.58,55.98l-.12.06c-1.92-.29-3.31-2.05-3.31-4.18l.12-.06c0,2.12,1.4,3.89,3.31,4.18Z"/>
    </clipPath>
    <clipPath id="clippath-10">
      <path class="cls-23" d="M43.11,45.39l.12-.06c.37-.18.77-.29,1.2-.29,1.69,0,3.1,1.64,3.1,3.51,0,1.18-.48,2.12-1.36,2.9l-.12.06c.88-.77,1.36-1.72,1.36-2.9,0-1.87-1.41-3.51-3.1-3.51-.43,0-.83.1-1.2.29Z"/>
    </clipPath>
    <clipPath id="clippath-11">
      <path class="cls-23" d="M46.99,55.83l-.12.06c-.23.11-.46.22-.7.31l.12-.06c.24-.09.47-.2.7-.31Z"/>
    </clipPath>
    <clipPath id="clippath-12">
      <path class="cls-23" d="M41.48,41.67l.12-.06c-2.4,1.2-4.08,3.88-4.08,6.9,0,3.47,1.94,6.42,5.08,7.63l-.12.06c-3.14-1.21-5.08-4.16-5.08-7.63,0-3.03,1.67-5.7,4.08-6.9Z"/>
    </clipPath>
    <clipPath id="clippath-13">
      <path class="cls-23" d="M58.32,51.8l-.12.06c.28-.14.48-.46.48-.95l.12-.06c0,.49-.2.81-.48.95Z"/>
    </clipPath>
    <clipPath id="clippath-14">
      <path class="cls-23" d="M59.95,55.96l-.12.06c-.58.29-1.23.45-1.89.45-2.74,0-4.88-2.28-4.88-5.42l.12-.06c0,3.14,2.14,5.42,4.88,5.42.67,0,1.31-.16,1.89-.45Z"/>
    </clipPath>
    <clipPath id="clippath-15">
      <path class="cls-23" d="M76.6,46.96l-.12.06c.34-.17.51-.5.51-.99,0-.42-.3-.94-.93-.94-.12,0-.23.03-.33.08l.12-.06c.1-.05.22-.08.33-.08.63,0,.93.51.93.94,0,.49-.17.83-.51.99Z"/>
    </clipPath>
    <clipPath id="clippath-16">
      <path class="cls-23" d="M78.85,50.59l-.12.06c-.48.24-1,.37-1.53.37l.12-.06c.53,0,1.05-.13,1.53-.37Z"/>
    </clipPath>
    <clipPath id="clippath-17">
      <path class="cls-23" d="M74.26,41.44l.12-.06c-1.83.92-3,2.99-3,4.27l-.12.06c0-1.28,1.17-3.36,3-4.28Z"/>
    </clipPath>
    <clipPath id="clippath-18">
      <path class="cls-23" d="M90.93,51.82l-.12.06c.99-.5,1.77-1.61,1.76-3.34,0-1.85-1.4-3.27-3.06-3.27-.46,0-.91.11-1.3.31l.12-.06c.4-.2.84-.31,1.3-.31,1.66,0,3.06,1.41,3.06,3.27,0,1.73-.77,2.84-1.76,3.34Z"/>
    </clipPath>
    <clipPath id="clippath-19">
      <path class="cls-23" d="M92.63,55.71l-.12.06c-.93.47-1.95.7-2.97.7-3.46,0-6.92-2.67-6.92-8,0-3.43,1.63-5.68,3.77-6.75l.12-.06c-2.14,1.07-3.77,3.32-3.77,6.75,0,5.33,3.47,8,6.92,8,1.02,0,2.04-.23,2.97-.7Z"/>
    </clipPath>
    <clipPath id="clippath-20">
      <path class="cls-23" d="M113.6,45.7l.12-.06c.14-.07.31-.1.52-.1l-.12.06c-.21,0-.38.04-.52.1Z"/>
    </clipPath>
    <clipPath id="clippath-21">
      <path class="cls-23" d="M113.32,50.5l.12-.06c.18-.09.41-.1.64-.1l-.12.06c-.23,0-.46,0-.64.1Z"/>
    </clipPath>
    <clipPath id="clippath-22">
      <path class="cls-23" d="M111.44,41.73l.12-.06c-1.34.67-2.23,2.17-2.23,3.66l-.12.06c0-1.49.89-2.99,2.23-3.66Z"/>
    </clipPath>
    <clipPath id="clippath-23">
      <path class="cls-23" d="M113.68,56.05l-.12.06c-.14,0-.27,0-.38,0l.12-.06c.12,0,.24,0,.38,0Z"/>
    </clipPath>
    <clipPath id="clippath-24">
      <path class="cls-23" d="M113.3,56.06l-.12.06c-.2,0-.39,0-.64-.05-1.92-.29-3.32-2.06-3.32-4.18l.12-.06c0,2.11,1.41,3.89,3.32,4.18.25.04.44.05.64.05Z"/>
    </clipPath>
    <clipPath id="clippath-25">
      <path class="cls-23" d="M123.49,56.05l-.12.06c-1.21,0-2.25-.44-3.06-1.32-.98-1.06-1.31-2.19-1.31-3.81l.12-.06c0,1.62.33,2.74,1.31,3.81.81.88,1.85,1.32,3.06,1.32Z"/>
    </clipPath>
  </defs>
  <path class="cls-5" d="M146.9,43.37c-2.78,19.37-32.22,33.68-71.12,35.48S6.3,60.45,4.34,44.5c2.07,16.86,32.54,29.66,71.44,29.66s68.86-15.04,71.12-30.79Z"/>
  <path class="cls-4" d="M147.25,45.02c-3.93-14.82-32.23-26.32-71.32-26.32S7.13,32.64,3.99,46.31C7.86,29.49,36.72,14.41,75.93,14.41s66.84,13.69,71.32,30.61Z"/>
  <g>
    <polygon class="cls-3" points="95.93 6.34 91.81 10.08 89.01 6.94 93.13 3.21 95.93 6.34"/>
    <polygon class="cls-1" points="61.86 10.33 56.46 6.36 58.93 2.95 64.33 6.93 61.86 10.33"/>
    <rect class="cls-2" x="56.42" y=".07" width="7.83" height="6.28"/>
    <rect class="cls-2" x="67.42" y=".07" width="7.83" height="6.28"/>
    <rect class="cls-2" x="78.04" y=".07" width="7.83" height="6.28"/>
    <rect class="cls-2" x="88.16" y=".07" width="7.83" height="6.28"/>
    <path class="cls-2" d="M91.87,37.52h-30.36c0-5.8,0-18.57,0-31.17h30.36v31.17Z"/>
    <line class="cls-2" x1="61.51" y1="10.09" x2="91.87" y2="10.08"/>
    <line class="cls-2" x1="61.51" y1="15.2" x2="91.87" y2="15.14"/>
    <line class="cls-2" x1="61.46" y1="22.95" x2="91.87" y2="23.11"/>
    <line class="cls-2" x1="61.51" y1="26.45" x2="91.87" y2="26.25"/>
    <line class="cls-2" x1="61.51" y1="30.4" x2="91.87" y2="30.17"/>
    <line class="cls-2" x1="61.51" y1="33.57" x2="91.87" y2="33.62"/>
    <line class="cls-2" x1="70.45" y1="6.35" x2="70.48" y2="10.06"/>
    <line class="cls-2" x1="81.22" y1="6.35" x2="81.26" y2="10.04"/>
    <line class="cls-2" x1="56.42" y1="3.11" x2="64.25" y2="3.11"/>
    <line class="cls-2" x1="59.31" y1=".1" x2="59.27" y2="3.11"/>
    <line class="cls-2" x1="67.42" y1="3.39" x2="75.26" y2="3.37"/>
    <line class="cls-2" x1="70.74" y1=".17" x2="70.8" y2="3.35"/>
    <line class="cls-2" x1="78.04" y1="3.21" x2="85.79" y2="3.33"/>
    <line class="cls-2" x1="81.85" y1=".04" x2="81.91" y2="3.2"/>
    <line class="cls-2" x1="88.16" y1="3.35" x2="95.9" y2="3.52"/>
    <line class="cls-2" x1="92.07" y1=".07" x2="92.03" y2="3.44"/>
    <line class="cls-2" x1="65.19" y1="10.06" x2="65.23" y2="15.14"/>
    <line class="cls-2" x1="75.31" y1="10.09" x2="75.4" y2="15.19"/>
    <line class="cls-2" x1="86.63" y1="10.08" x2="86.63" y2="15.19"/>
    <line class="cls-2" x1="86.63" y1="18.64" x2="91.87" y2="18.74"/>
    <line class="cls-2" x1="86.63" y1="23.03" x2="86.63" y2="18.64"/>
    <line class="cls-2" x1="61.51" y1="18.92" x2="66.2" y2="18.92"/>
    <line class="cls-2" x1="66.13" y1="22.97" x2="66.13" y2="18.86"/>
    <line class="cls-2" x1="66.03" y1="26.42" x2="66.03" y2="30.39"/>
    <line class="cls-2" x1="75.1" y1="26.45" x2="75.19" y2="30.19"/>
    <line class="cls-2" x1="86.53" y1="26.3" x2="86.53" y2="30.19"/>
    <line class="cls-2" x1="69.61" y1="30.4" x2="69.51" y2="33.5"/>
    <line class="cls-2" x1="86.1" y1="33.61" x2="86.1" y2="37.45"/>
    <line class="cls-2" x1="56.42" y1="6.35" x2="61.51" y2="10.09"/>
    <line class="cls-2" x1="91.87" y1="10.08" x2="95.99" y2="6.35"/>
  </g>
  <g>
    <g class="cls-25">
      <polygon class="cls-18" points="72.59 17.18 72.4 17.24 70.09 17.24 70.27 17.18 72.59 17.18"/>
      <polygon class="cls-18" points="72.5 19.37 72.32 19.43 70.09 19.43 70.28 19.37 72.5 19.37"/>
      <polygon class="cls-18" points="72.61 21.8 72.42 21.86 69.07 21.86 69.25 21.8 72.61 21.8"/>
      <polygon class="cls-18" points="69.25 21.8 69.07 21.86 69.06 16.3 69.25 16.24 69.25 21.8"/>
      <polygon class="cls-17" points="72.59 16.24 72.59 17.18 70.27 17.18 70.27 18.44 72.5 18.44 72.5 19.37 70.28 19.37 70.28 20.87 72.73 20.87 72.61 21.8 69.25 21.8 69.25 16.24 72.59 16.24"/>
    </g>
    <g class="cls-25">
      <polygon class="cls-18" points="78.7 17.18 78.52 17.24 77.12 17.24 77.31 17.18 78.7 17.18"/>
      <polygon class="cls-18" points="76.26 17.18 76.07 17.24 74.69 17.24 74.87 17.18 76.26 17.18"/>
      <polygon class="cls-18" points="74.87 17.18 74.69 17.24 74.69 16.3 74.87 16.24 74.87 17.18"/>
      <polygon class="cls-18" points="76.26 21.8 76.08 21.86 76.07 17.24 76.26 17.18 76.26 21.8"/>
      <polygon class="cls-18" points="77.31 21.8 77.13 21.86 76.08 21.86 76.26 21.8 77.31 21.8"/>
      <polygon class="cls-17" points="78.7 16.24 78.7 17.18 77.31 17.18 77.31 21.8 76.26 21.8 76.26 17.18 74.87 17.18 74.87 16.24 78.7 16.24"/>
    </g>
    <g class="cls-25">
      <polygon class="cls-18" points="84.7 17.75 84.51 17.81 83.49 17.81 83.67 17.75 84.7 17.75"/>
      <g class="cls-25">
        <g class="cls-39">
          <g class="cls-25">
            <path class="cls-29" d="M83.67,17.75l-.19.06c-.06-.4-.24-.72-.79-.72-.12,0-.22.02-.3.04l.19-.06c.09-.03.19-.04.3-.04.55,0,.73.31.79.72"/>
          </g>
        </g>
      </g>
      <g class="cls-25">
        <g class="cls-24">
          <g class="cls-25">
            <path class="cls-29" d="M83.37,20.94l-.19.06c.29-.1.4-.32.4-.61,0-.5-.29-.71-1.03-.94l.19-.06c.74.23,1.02.44,1.03.94,0,.29-.11.51-.4.61"/>
          </g>
        </g>
      </g>
      <g class="cls-25">
        <g class="cls-36">
          <g class="cls-25">
            <path class="cls-29" d="M82.75,19.38l-.19.06c-1.19-.35-1.59-.82-1.59-1.62s.42-1.28,1.04-1.49l.19-.06c-.62.21-1.04.71-1.04,1.49s.41,1.27,1.59,1.62"/>
          </g>
        </g>
      </g>
      <g class="cls-25">
        <g class="cls-30">
          <g class="cls-25">
            <path class="cls-29" d="M83.76,21.75l-.19.06c-.23.08-.5.12-.82.12-1.12,0-1.85-.61-1.92-1.71l.19-.06c.06,1.1.79,1.71,1.92,1.71.31,0,.59-.04.82-.12"/>
          </g>
        </g>
      </g>
      <path class="cls-17" d="M82.89,16.17c1.23,0,1.75.69,1.81,1.58h-1.02c-.06-.4-.24-.72-.79-.72-.46,0-.68.23-.68.62,0,.41.25.53.98.76,1.31.41,1.65.98,1.66,1.78,0,.91-.56,1.68-1.89,1.68-1.12,0-1.85-.61-1.92-1.71h1.03c.08.5.38.83.93.83.58,0,.79-.27.79-.67,0-.5-.29-.71-1.03-.94-1.19-.35-1.59-.82-1.59-1.62,0-1.03.75-1.59,1.73-1.59Z"/>
    </g>
  </g>
  <g>
    <g class="cls-25">
      <polygon class="cls-11" points="35.8 45.51 35.68 45.57 33.06 45.57 33.18 45.51 35.8 45.51"/>
      <g class="cls-25">
        <g class="cls-13">
          <g class="cls-25">
            <path class="cls-34" d="M33.18,45.51l-.12.06c-.21,0-.39.04-.53.1l.12-.06c.14-.07.32-.1.53-.1"/>
          </g>
        </g>
      </g>
      <polygon class="cls-11" points="35.56 50.33 35.44 50.39 32.88 50.38 33 50.32 35.56 50.33"/>
      <g class="cls-25">
        <g class="cls-26">
          <g class="cls-25">
            <path class="cls-34" d="M33,50.32l-.12.06c-.22,0-.45,0-.63.1l.12-.06c.18-.09.41-.1.63-.1"/>
          </g>
        </g>
      </g>
      <g class="cls-25">
        <g class="cls-7">
          <g class="cls-25">
            <path class="cls-34" d="M28.27,45.31l-.12.06c0-1.5.89-3,2.23-3.66l.12-.06c-1.33.67-2.23,2.16-2.23,3.66"/>
          </g>
        </g>
      </g>
      <polygon class="cls-11" points="35.81 56.03 35.69 56.09 32.49 56.09 32.61 56.03 35.81 56.03"/>
      <g class="cls-25">
        <g class="cls-8">
          <g class="cls-25">
            <path class="cls-34" d="M32.61,56.03l-.12.06c-.17,0-.31,0-.44,0l.12-.06c.14,0,.28,0,.44,0"/>
          </g>
        </g>
      </g>
      <g class="cls-25">
        <g class="cls-28">
          <g class="cls-25">
            <path class="cls-34" d="M32.17,56.03l-.12.06c-.18,0-.36,0-.58-.05l.12-.06c.23.04.4.05.58.05"/>
          </g>
        </g>
      </g>
      <polygon class="cls-11" points="28.27 51.81 28.15 51.87 28.14 45.37 28.27 45.31 28.27 51.81"/>
      <path class="cls-16" d="M35.8,41.29v4.22s-2.62,0-2.62,0c-.58,0-.89.26-.89.75,0,.51.34.76.97.76h2.3s0,3.32,0,3.32h-2.56c-.45,0-.94.02-.94.73s.51.75.97.75c.05,0,.1,0,.15,0h2.63s0,4.22,0,4.22h-3.2c-.17,0-.31,0-.44,0-.18,0-.36,0-.58-.05-1.92-.29-3.31-2.05-3.31-4.18v-6.5c0-2.02,1.61-4.02,3.74-4.02h3.8Z"/>
      <g class="cls-25">
        <g class="cls-19">
          <g class="cls-25">
            <path class="cls-34" d="M31.58,55.98l-.12.06c-1.92-.29-3.31-2.05-3.31-4.18l.12-.06c0,2.12,1.4,3.89,3.31,4.18"/>
          </g>
        </g>
      </g>
    </g>
    <g class="cls-25">
      <g class="cls-25">
        <g class="cls-20">
          <g class="cls-25">
            <path class="cls-34" d="M46.17,51.45l-.12.06c.88-.77,1.36-1.72,1.36-2.9,0-1.87-1.41-3.51-3.1-3.51-.43,0-.83.1-1.2.29l.12-.06c.37-.18.77-.29,1.2-.29,1.69,0,3.1,1.64,3.1,3.51,0,1.18-.48,2.12-1.36,2.9"/>
          </g>
        </g>
      </g>
      <g class="cls-25">
        <g class="cls-22">
          <g class="cls-25">
            <path class="cls-34" d="M46.99,55.83l-.12.06c-.23.11-.46.22-.7.31l.12-.06c.24-.09.47-.2.7-.31"/>
          </g>
        </g>
      </g>
      <polygon class="cls-11" points="42.7 51.45 42.58 51.51 42.57 49.88 42.7 49.82 42.7 51.45"/>
      <polygon class="cls-11" points="42.6 57.38 42.48 57.44 42.48 56.2 42.6 56.14 42.6 57.38"/>
      <polygon class="cls-11" points="46.29 57.38 46.17 57.45 42.48 57.44 42.6 57.38 46.29 57.38"/>
      <g class="cls-25">
        <g class="cls-31">
          <g class="cls-25">
            <path class="cls-34" d="M42.6,56.14l-.12.06c-3.14-1.21-5.08-4.16-5.08-7.63,0-3.03,1.67-5.7,4.08-6.9l.12-.06c-2.4,1.2-4.08,3.88-4.08,6.9,0,3.47,1.94,6.42,5.08,7.63"/>
          </g>
        </g>
      </g>
      <path class="cls-16" d="M44.43,40.94c3.79,0,6.88,3.47,6.89,7.59,0,3.46-1.88,6.41-5.02,7.62v1.24s-3.69,0-3.69,0v-1.23c-3.14-1.21-5.08-4.16-5.08-7.63,0-4.11,3.09-7.58,6.9-7.58ZM46.17,51.45c.88-.77,1.36-1.72,1.36-2.9,0-1.87-1.41-3.51-3.1-3.51s-3.06,1.63-3.06,3.51c0,1.17.43,2.15,1.32,2.9v-1.64s3.47,0,3.47,0v1.64"/>
    </g>
    <g class="cls-25">
      <polygon class="cls-11" points="58.8 50.84 58.68 50.9 58.67 41.36 58.79 41.3 58.8 50.84"/>
      <g class="cls-25">
        <g class="cls-37">
          <g class="cls-25">
            <path class="cls-34" d="M58.32,51.8l-.12.06c.28-.14.48-.46.48-.95l.12-.06c0,.49-.2.81-.48.95"/>
          </g>
        </g>
      </g>
      <polygon class="cls-11" points="53.17 51 53.05 51.06 53.05 41.35 53.17 41.29 53.17 51"/>
      <g class="cls-25">
        <g class="cls-32">
          <g class="cls-25">
            <path class="cls-34" d="M59.95,55.96l-.12.06c-.58.29-1.23.45-1.89.45-2.74,0-4.88-2.28-4.88-5.42l.12-.06c0,3.14,2.14,5.42,4.88,5.42.67,0,1.31-.16,1.89-.45"/>
          </g>
        </g>
      </g>
      <path class="cls-16" d="M53.17,41.29h3.92s0,9.56,0,9.56c0,.62.34,1.03.87,1.03.45,0,.83-.35.83-1.03v-9.55s3.88,0,3.88,0v9.7c0,3.25-2.14,5.42-4.62,5.42-2.74,0-4.88-2.28-4.88-5.42v-9.71Z"/>
    </g>
    <g class="cls-25">
      <polygon class="cls-11" points="69.03 56.03 68.91 56.1 64.94 56.1 65.06 56.03 69.03 56.03"/>
      <polygon class="cls-11" points="65.06 56.03 64.94 56.1 64.92 41.36 65.04 41.3 65.06 56.03"/>
      <polygon class="cls-16" points="69.01 41.3 69.03 56.03 65.06 56.03 65.04 41.3 69.01 41.3"/>
    </g>
    <g class="cls-25">
      <g class="cls-25">
        <g class="cls-10">
          <g class="cls-25">
            <path class="cls-34" d="M76.6,46.96l-.12.06c.34-.17.51-.5.51-.99,0-.42-.3-.94-.93-.94-.12,0-.23.03-.33.08l.12-.06c.1-.05.22-.08.33-.08.63,0,.93.51.93.94,0,.49-.17.83-.51.99"/>
          </g>
        </g>
      </g>
      <g class="cls-25">
        <g class="cls-35">
          <g class="cls-25">
            <path class="cls-34" d="M78.85,50.59l-.12.06c-.48.24-1,.37-1.53.37l.12-.06c.53,0,1.05-.13,1.53-.37"/>
          </g>
        </g>
      </g>
      <polygon class="cls-11" points="75.95 50.96 75.83 51.02 75.83 47.15 75.95 47.09 75.95 50.96"/>
      <polygon class="cls-11" points="77.32 50.96 77.2 51.02 75.83 51.02 75.95 50.96 77.32 50.96"/>
      <g class="cls-25">
        <g class="cls-9">
          <g class="cls-25">
            <path class="cls-34" d="M71.39,45.65l-.12.06c0-1.28,1.17-3.36,3-4.28l.12-.06c-1.83.92-3,2.99-3,4.28"/>
          </g>
        </g>
      </g>
      <polygon class="cls-11" points="71.39 56.04 71.27 56.1 71.26 45.71 71.39 45.65 71.39 56.04"/>
      <polygon class="cls-11" points="75.31 56.04 75.19 56.1 71.27 56.1 71.39 56.04 75.31 56.04"/>
      <path class="cls-16" d="M76.28,40.92c3.12,0,5.01,2.86,5.01,5.26,0,2.81-1.89,4.78-3.96,4.78h-1.38s0-3.87,0-3.87c.76,0,1.16-.38,1.16-1.12,0-.42-.3-.94-.93-.94-.46,0-.87.4-.87,1.24v9.77s-3.92,0-3.92,0v-10.39c0-1.68,2.01-4.73,4.88-4.73Z"/>
    </g>
    <g class="cls-25">
      <g class="cls-25">
        <g class="cls-12">
          <g class="cls-25">
            <path class="cls-34" d="M90.93,51.82l-.12.06c.99-.5,1.77-1.61,1.76-3.34,0-1.85-1.4-3.27-3.06-3.27-.46,0-.91.11-1.3.31l.12-.06c.4-.2.84-.31,1.3-.31,1.66,0,3.06,1.41,3.06,3.27,0,1.73-.77,2.84-1.76,3.34"/>
          </g>
        </g>
      </g>
      <g class="cls-25">
        <g class="cls-33">
          <g class="cls-25">
            <path class="cls-34" d="M92.63,55.71l-.12.06c-.93.47-1.95.7-2.97.7-3.46,0-6.92-2.67-6.92-8,0-3.43,1.63-5.68,3.77-6.75l.12-.06c-2.14,1.07-3.77,3.32-3.77,6.75,0,5.33,3.47,8,6.92,8,1.02,0,2.04-.23,2.97-.7"/>
          </g>
        </g>
      </g>
      <path class="cls-16" d="M89.62,40.94c3.46,0,6.92,2.5,6.93,7.5,0,5.31-3.44,7.97-6.89,7.97s-6.92-2.67-6.92-8c0-4.99,3.44-7.48,6.89-7.48ZM89.65,52.13c1.53,0,3.05-1.21,3.05-3.64,0-1.85-1.4-3.27-3.06-3.27-1.66,0-3.06,1.42-3.06,3.27,0,2.42,1.54,3.64,3.07,3.64"/>
    </g>
    <g class="cls-25">
      <polygon class="cls-11" points="107.63 45.51 107.51 45.57 104.55 45.57 104.67 45.51 107.63 45.51"/>
      <polygon class="cls-11" points="100.75 45.51 100.63 45.57 97.63 45.57 97.75 45.51 100.75 45.51"/>
      <polygon class="cls-11" points="97.75 45.51 97.63 45.57 97.62 41.35 97.75 41.29 97.75 45.51"/>
      <polygon class="cls-11" points="100.76 56.05 100.64 56.11 100.63 45.57 100.75 45.51 100.76 56.05"/>
      <polygon class="cls-11" points="104.68 56.05 104.56 56.11 100.64 56.11 100.76 56.05 104.68 56.05"/>
      <polygon class="cls-16" points="107.63 41.29 107.63 45.51 104.67 45.51 104.68 56.05 100.76 56.05 100.75 45.51 97.75 45.51 97.75 41.29 107.63 41.29"/>
    </g>
    <g class="cls-25">
      <polygon class="cls-11" points="116.87 45.53 116.75 45.59 114.12 45.59 114.24 45.53 116.87 45.53"/>
      <g class="cls-25">
        <g class="cls-27">
          <g class="cls-25">
            <path class="cls-34" d="M114.24,45.53l-.12.06c-.21,0-.38.04-.52.1l.12-.06c.14-.07.31-.1.52-.1"/>
          </g>
        </g>
      </g>
      <polygon class="cls-11" points="116.64 50.35 116.52 50.41 113.96 50.41 114.08 50.35 116.64 50.35"/>
      <g class="cls-25">
        <g class="cls-6">
          <g class="cls-25">
            <path class="cls-34" d="M114.08,50.35l-.12.06c-.23,0-.46,0-.64.1l.12-.06c.18-.09.41-.1.64-.1"/>
          </g>
        </g>
      </g>
      <g class="cls-25">
        <g class="cls-14">
          <g class="cls-25">
            <path class="cls-34" d="M109.33,45.33l-.12.06c0-1.49.89-2.99,2.23-3.66l.12-.06c-1.34.67-2.23,2.17-2.23,3.66"/>
          </g>
        </g>
      </g>
      <polygon class="cls-11" points="116.88 56.05 116.76 56.11 113.56 56.11 113.68 56.05 116.88 56.05"/>
      <g class="cls-25">
        <g class="cls-15">
          <g class="cls-25">
            <path class="cls-34" d="M113.68,56.05l-.12.06c-.14,0-.27,0-.38,0l.12-.06c.12,0,.24,0,.38,0"/>
          </g>
        </g>
      </g>
      <polygon class="cls-11" points="109.34 51.83 109.22 51.89 109.21 45.39 109.33 45.33 109.34 51.83"/>
      <path class="cls-16" d="M113.08,41.3h3.79s0,4.23,0,4.23h-2.63c-.57,0-.88.26-.88.75,0,.51.33.76.96.76h2.31s0,3.31,0,3.31h-2.56c-.46,0-.95.03-.95.73s.52.76.97.76c.05,0,.1,0,.15,0h2.63s0,4.22,0,4.22h-3.19c-.14,0-.27,0-.38,0-.2,0-.39,0-.64-.05-1.92-.29-3.32-2.06-3.32-4.18v-6.51c0-2.01,1.61-4.02,3.74-4.02Z"/>
      <g class="cls-25">
        <g class="cls-38">
          <g class="cls-25">
            <path class="cls-34" d="M113.3,56.06l-.12.06c-.2,0-.39,0-.64-.05-1.92-.29-3.32-2.06-3.32-4.18l.12-.06c0,2.11,1.41,3.89,3.32,4.18.25.04.44.05.64.05"/>
          </g>
        </g>
      </g>
    </g>
    <g class="cls-25">
      <polygon class="cls-11" points="124.69 56.05 124.57 56.11 123.37 56.11 123.49 56.05 124.69 56.05"/>
      <polygon class="cls-11" points="119.12 50.92 119 50.98 119 41.37 119.12 41.31 119.12 50.92"/>
      <g class="cls-25">
        <g class="cls-21">
          <g class="cls-25">
            <path class="cls-34" d="M123.49,56.05l-.12.06c-1.21,0-2.25-.44-3.06-1.32-.98-1.06-1.31-2.19-1.31-3.81l.12-.06c0,1.62.33,2.74,1.31,3.81.81.88,1.85,1.32,3.06,1.32"/>
          </g>
        </g>
      </g>
      <path class="cls-16" d="M123.01,41.31v9.06c0,1.06.46,1.41,1.48,1.41h.2s0,4.27,0,4.27h-1.21c-1.21,0-2.25-.44-3.06-1.32-.98-1.06-1.31-2.19-1.31-3.81v-9.61s3.89,0,3.89,0Z"/>
    </g>
  </g>
</svg>