<?xml version="1.0" encoding="UTF-8"?>
<svg id="Capa_1" data-name="Capa 1" xmlns="http://www.w3.org/2000/svg" xmlns:xlink="http://www.w3.org/1999/xlink" viewBox="0 0 539.58 85.18">
  <defs>
    <style>
      .cls-1 {
        clip-path: url(#clippath-6);
      }

      .cls-2 {
        clip-path: url(#clippath-7);
      }

      .cls-3 {
        fill: #202466;
      }

      .cls-4 {
        clip-path: url(#clippath-4);
      }

      .cls-5 {
        fill: #22266e;
      }

      .cls-6 {
        clip-path: url(#clippath-9);
      }

      .cls-7 {
        clip-path: url(#clippath-10);
      }

      .cls-8 {
        clip-path: url(#clippath-11);
      }

      .cls-9 {
        fill: none;
      }

      .cls-10 {
        clip-path: url(#clippath-1);
      }

      .cls-11 {
        isolation: isolate;
      }

      .cls-12 {
        clip-path: url(#clippath-5);
      }

      .cls-13 {
        clip-path: url(#clippath-8);
      }

      .cls-14 {
        fill: #232771;
      }

      .cls-15 {
        clip-path: url(#clippath-3);
      }

      .cls-16 {
        clip-path: url(#clippath-12);
      }

      .cls-17 {
        fill: #373eb2;
      }

      .cls-18 {
        clip-path: url(#clippath-14);
      }

      .cls-19 {
        fill: #21256a;
      }

      .cls-20 {
        clip-path: url(#clippath-2);
      }

      .cls-21 {
        clip-path: url(#clippath-13);
      }

      .cls-22 {
        clip-path: url(#clippath);
      }

      .cls-23 {
        fill: #232872;
      }
    </style>
    <clipPath id="clippath">
      <path class="cls-9" d="M27.6,56.33h-1.81c.28,0,.56,0,.84,0h1.81c-.27,0-.55,0-.84,0Z"/>
    </clipPath>
    <clipPath id="clippath-1">
      <path class="cls-9" d="M22.97,78.2h-1.81c-1.1,0-2.12-.04-3.47-.25C6.98,76.45-.86,67.3-.86,56.32H.95c0,10.98,7.84,20.13,18.55,21.63,1.36.21,2.38.25,3.47.25Z"/>
    </clipPath>
    <clipPath id="clippath-2">
      <path class="cls-9" d="M.94,22.69H-.87C-.87,12.27,8.19,1.87,20.12,1.87h1.81c-11.93,0-20.98,10.4-20.98,20.82Z"/>
    </clipPath>
    <clipPath id="clippath-3">
      <path class="cls-9" d="M101.09,54.52h-1.81c4.97-4,7.61-8.92,7.61-14.98,0-9.72-7.84-18.19-17.33-18.2h1.81c9.49,0,17.33,8.48,17.33,18.2,0,6.07-2.65,10.98-7.61,14.98Z"/>
    </clipPath>
    <clipPath id="clippath-4">
      <path class="cls-9" d="M81.11,78.76h-1.81c-17.56-6.3-28.37-21.52-28.38-39.47C50.92,18.01,68.25.06,89.56.06h1.81c-21.31,0-38.64,17.95-38.64,39.23,0,17.95,10.83,33.17,28.38,39.47Z"/>
    </clipPath>
    <clipPath id="clippath-5">
      <path class="cls-9" d="M167.13,56.71h-1.81c2.54,0,4.63-1.84,4.63-5.38h1.81c0,3.55-2.1,5.38-4.63,5.38Z"/>
    </clipPath>
    <clipPath id="clippath-6">
      <path class="cls-9" d="M167.57,80.16h-1.81c-15.35,0-27.27-11.79-27.27-28.04h1.81c0,16.24,11.92,28.04,27.27,28.04Z"/>
    </clipPath>
    <clipPath id="clippath-7">
      <path class="cls-9" d="M267.71,31.92h-1.81c4.3,0,6.52-1.94,6.52-5.83,0-2.18-1.66-4.81-5.19-4.81h1.81c3.53,0,5.19,2.63,5.19,4.81,0,3.89-2.21,5.83-6.51,5.83Z"/>
    </clipPath>
    <clipPath id="clippath-8">
      <path class="cls-9" d="M242.2,24.48h-1.81C240.4,15.78,251.66,0,267.78,0h1.81c-16.12,0-27.38,15.79-27.38,24.48Z"/>
    </clipPath>
    <clipPath id="clippath-9">
      <path class="cls-9" d="M344.38,57.98h-1.81c8.55,0,17.08-6.26,17.07-18.82,0-9.61-7.84-16.94-17.12-16.94h1.81c9.28,0,17.12,7.33,17.12,16.94,0,12.57-8.53,18.82-17.07,18.82Z"/>
    </clipPath>
    <clipPath id="clippath-10">
      <path class="cls-9" d="M344.39,80.17h-1.81c-19.34,0-38.69-13.79-38.69-41.38,0-25.82,19.27-38.71,38.56-38.71h1.81c-19.29,0-38.56,12.9-38.56,38.71,0,27.59,19.36,41.38,38.69,41.38Z"/>
    </clipPath>
    <clipPath id="clippath-11">
      <path class="cls-9" d="M481.2,56.46h-1.81c.28,0,.56,0,.84,0h1.81c-.27,0-.55,0-.84,0Z"/>
    </clipPath>
    <clipPath id="clippath-12">
      <path class="cls-9" d="M476.56,78.33h-1.81c-1.1,0-2.12-.04-3.47-.25-10.71-1.49-18.55-10.65-18.55-21.63h1.81c0,10.98,7.84,20.13,18.55,21.63,1.36.21,2.38.25,3.47.25Z"/>
    </clipPath>
    <clipPath id="clippath-13">
      <path class="cls-9" d="M454.53,22.82h-1.81c0-10.41,9.05-20.82,20.98-20.82h1.81c-11.92,0-20.98,10.4-20.98,20.82Z"/>
    </clipPath>
    <clipPath id="clippath-14">
      <path class="cls-9" d="M533.71,78.32h-1.81c-6.74,0-12.59-2.29-17.12-6.87-5.53-5.49-7.29-11.32-7.29-19.67h1.81c0,8.35,1.76,14.18,7.29,19.67,4.53,4.58,10.38,6.87,17.12,6.87Z"/>
    </clipPath>
  </defs>
  <g class="cls-11">
    <polygon class="cls-14" points="28.88 31.51 27.07 31.51 39.99 31.51 41.79 31.51 28.88 31.51"/>
    <polygon class="cls-14" points="28.44 56.33 26.63 56.33 41.32 56.33 43.13 56.33 28.44 56.33"/>
    <polygon class="cls-3" points="43.13 23.73 41.32 23.73 26.63 23.72 28.44 23.72 43.13 23.73"/>
    <g class="cls-11">
      <g class="cls-22">
        <g class="cls-11">
          <path class="cls-23" d="M27.6,56.33h-1.81c.28,0,.56,0,.84,0h1.81c-.27,0-.55,0-.84,0"/>
        </g>
      </g>
    </g>
    <polygon class="cls-3" points="41.8 48.67 40 48.67 25.64 48.66 27.45 48.66 41.8 48.67"/>
    <g class="cls-11">
      <g class="cls-10">
        <g class="cls-11">
          <path class="cls-19" d="M22.97,78.2h-1.81c-1.1,0-2.12-.04-3.47-.25C6.98,76.45-.86,67.3-.86,56.32H.95c0,10.98,7.84,20.13,18.55,21.63,1.36.21,2.38.25,3.47.25"/>
        </g>
      </g>
    </g>
    <rect class="cls-3" x="-.86" y="22.69" width="1.81" height="33.63"/>
    <g class="cls-11">
      <g class="cls-20">
        <g class="cls-11">
          <path class="cls-19" d="M.94,22.69H-.87C-.87,14.19,5.16,5.69,13.87,2.86h1.81C6.97,5.69.94,14.19.94,22.69"/>
          <path class="cls-5" d="M15.67,2.86h-1.81c1.19-.39,2.42-.67,3.7-.83h1.81c-1.28.16-2.51.44-3.7.83"/>
          <path class="cls-23" d="M19.37,2.03h-1.81c.83-.11,1.69-.16,2.55-.16h1.81c-.87,0-1.72.05-2.55.16"/>
        </g>
      </g>
    </g>
    <path class="cls-17" d="M21.92,1.87h21.19s0,21.86,0,21.86h-14.69c-3.2,0-4.97,1.37-4.97,3.88,0,2.64,1.87,3.9,5.41,3.9h12.91s0,17.16,0,17.16h-14.35c-2.55,0-5.3.11-5.3,3.77s2.87,3.89,5.45,3.89c.28,0,.56,0,.84,0h14.69s0,21.85,0,21.85h-17.89c-.85,0-1.57.02-2.27.02-1.1,0-2.12-.04-3.47-.25-10.71-1.49-18.55-10.65-18.55-21.63V22.69C.94,12.27,9.99,1.87,21.92,1.87Z"/>
  </g>
  <g class="cls-11">
    <g class="cls-11">
      <g class="cls-15">
        <g class="cls-11">
          <path class="cls-19" d="M101.09,54.52h-1.81c4.97-4,7.61-8.92,7.61-14.98,0-9.72-7.84-18.19-17.33-18.2h1.81c9.49,0,17.33,8.48,17.33,18.2,0,6.07-2.65,10.98-7.61,14.98"/>
        </g>
      </g>
    </g>
    <rect class="cls-3" x="79.85" y="46.05" width="1.81" height="8.46"/>
    <polygon class="cls-14" points="81.66 46.05 79.85 46.05 99.29 46.05 101.09 46.05 81.66 46.05"/>
    <polygon class="cls-3" points="101.76 85.18 99.95 85.18 79.3 85.17 81.11 85.17 101.76 85.18"/>
    <rect class="cls-3" x="79.3" y="78.76" width="1.81" height="6.41"/>
    <g class="cls-11">
      <g class="cls-4">
        <g class="cls-11">
          <path class="cls-19" d="M81.11,78.76h-1.81c-17.56-6.3-28.37-21.52-28.38-39.47,0-17.24,11.38-32.3,27.04-37.39h1.81c-15.66,5.09-27.04,20.15-27.04,37.39,0,17.95,10.83,33.17,28.38,39.47"/>
          <path class="cls-5" d="M79.77,1.9h-1.81c2.21-.72,4.51-1.24,6.87-1.54h1.81c-2.36.3-4.66.82-6.87,1.54"/>
          <path class="cls-23" d="M86.63.36h-1.81c1.55-.2,3.13-.3,4.73-.3h1.81c-1.6,0-3.18.1-4.73.3"/>
        </g>
      </g>
    </g>
    <path class="cls-17" d="M91.37.06c21.2,0,38.54,17.97,38.54,39.25,0,17.96-10.59,33.17-28.15,39.47v6.41h-20.65v-6.42c-17.56-6.3-28.37-21.52-28.38-39.47C52.73,18.01,70.06.06,91.37.06ZM101.09,54.52c4.97-4,7.61-8.92,7.61-14.98,0-9.72-7.84-18.19-17.33-18.2-9.5,0-17.12,8.47-17.12,18.19,0,6.07,2.43,11.1,7.4,14.98v-8.46h19.44s0,8.47,0,8.47"/>
  </g>
  <g class="cls-11">
    <rect class="cls-3" x="169.95" y="1.91" width="1.81" height="49.42"/>
    <g class="cls-11">
      <g class="cls-12">
        <g class="cls-11">
          <path class="cls-23" d="M167.13,56.71h-1.81c.21,0,.43-.01.63-.04h1.81c-.21.03-.42.04-.63.04"/>
          <path class="cls-5" d="M167.76,56.68h-1.81c.29-.04.58-.1.85-.19h1.81c-.27.09-.56.15-.85.19"/>
          <path class="cls-19" d="M168.61,56.49h-1.81c1.82-.59,3.15-2.33,3.15-5.15h1.81c0,2.82-1.33,4.56-3.15,5.15"/>
        </g>
      </g>
    </g>
    <g class="cls-11">
      <g class="cls-1">
        <g class="cls-11">
          <path class="cls-19" d="M167.57,80.16h-1.81c-15.35,0-27.27-11.79-27.27-28.04h1.81c0,16.24,11.92,28.04,27.27,28.04"/>
        </g>
      </g>
    </g>
    <rect class="cls-3" x="138.48" y="1.9" width="1.81" height="50.22"/>
    <path class="cls-17" d="M140.28,1.9h21.97s0,49.43,0,49.43c0,3.2,1.87,5.38,4.86,5.38,2.54,0,4.63-1.84,4.63-5.38V1.91s21.75,0,21.75,0v50.22c0,16.82-12.03,28.03-25.94,28.02-15.35,0-27.27-11.79-27.27-28.04V1.9Z"/>
  </g>
  <g class="cls-11">
    <rect class="cls-3" x="204.96" y="1.92" width="1.81" height="76.31"/>
    <polygon class="cls-17" points="206.76 1.92 228.96 1.93 228.96 78.23 206.77 78.23 206.76 1.92"/>
  </g>
  <g class="cls-11">
    <rect class="cls-3" x="265.91" y="31.92" width="1.81" height="20.02"/>
    <g class="cls-11">
      <g class="cls-2">
        <g class="cls-11">
          <path class="cls-23" d="M267.71,31.92h-1.81c.53,0,1.02-.03,1.49-.09h1.81c-.46.06-.96.09-1.49.09"/>
          <path class="cls-5" d="M269.2,31.83h-1.81c.54-.07,1.04-.18,1.5-.32h1.81c-.46.15-.96.26-1.5.32"/>
          <path class="cls-19" d="M270.7,31.51h-1.81c2.34-.76,3.53-2.57,3.53-5.42,0-2.18-1.66-4.81-5.19-4.81h1.81c3.53,0,5.19,2.63,5.19,4.81,0,2.85-1.19,4.66-3.53,5.42"/>
        </g>
      </g>
    </g>
    <polygon class="cls-3" points="264.19 78.25 262.38 78.25 240.41 78.24 242.21 78.24 264.19 78.25"/>
    <rect class="cls-3" x="240.4" y="24.48" width="1.81" height="53.77"/>
    <g class="cls-11">
      <g class="cls-13">
        <g class="cls-11">
          <path class="cls-19" d="M242.2,24.48h-1.81c0-7.23,7.79-19.36,19.68-23.25h1.81c-11.89,3.88-19.68,16.02-19.68,23.25"/>
          <path class="cls-5" d="M261.89,1.23h-1.81c1.47-.48,3.01-.84,4.6-1.04h1.81c-1.59.2-3.13.56-4.6,1.04"/>
          <path class="cls-23" d="M266.49.19h-1.81c1.01-.13,2.04-.2,3.1-.2h1.81c-1.05,0-2.09.07-3.1.2"/>
        </g>
      </g>
    </g>
    <path class="cls-17" d="M269.59,0c17.45,0,28.05,14.77,28.05,27.24,0,14.53-10.6,24.71-22.19,24.7h-7.73s0-20.02,0-20.02c4.3,0,6.51-1.94,6.51-5.83,0-2.18-1.66-4.81-5.19-4.81-2.54,0-4.86,2.05-4.86,6.4v50.57s-21.97,0-21.97,0V24.48C242.2,15.78,253.47,0,269.59,0Z"/>
  </g>
  <g class="cls-11">
    <g class="cls-11">
      <g class="cls-6">
        <g class="cls-11">
          <path class="cls-23" d="M344.38,57.98h-1.81c.73,0,1.46-.05,2.19-.14h1.81c-.73.09-1.46.14-2.19.14"/>
          <path class="cls-5" d="M346.57,57.84h-1.81c1.07-.14,2.12-.37,3.15-.7h1.81c-1.03.33-2.08.57-3.15.7"/>
          <path class="cls-19" d="M349.72,57.14h-1.81c6.43-2.09,11.73-8.08,11.73-17.98,0-9.61-7.84-16.94-17.12-16.94h1.81c9.28,0,17.12,7.33,17.12,16.94,0,9.91-5.3,15.89-11.73,17.98"/>
        </g>
      </g>
    </g>
    <g class="cls-11">
      <g class="cls-7">
        <g class="cls-11">
          <path class="cls-19" d="M344.39,80.17h-1.81c-19.34,0-38.69-13.79-38.69-41.38,0-19.88,11.42-32.1,25.48-36.67h1.81c-14.06,4.57-25.48,16.79-25.48,36.67,0,27.59,19.36,41.38,38.69,41.38"/>
          <path class="cls-5" d="M331.18,2.13h-1.81c2.49-.81,5.07-1.38,7.68-1.71h1.81c-2.61.33-5.19.9-7.68,1.71"/>
          <path class="cls-23" d="M338.86.42h-1.81c1.79-.23,3.59-.34,5.4-.34h1.81c-1.8,0-3.61.11-5.4.34"/>
        </g>
      </g>
    </g>
    <path class="cls-17" d="M344.26.08c19.35,0,38.73,12.96,38.73,38.85,0,27.49-19.29,41.24-38.6,41.24-19.34,0-38.69-13.79-38.69-41.38,0-25.82,19.27-38.71,38.56-38.71ZM344.38,57.98c8.55,0,17.08-6.26,17.07-18.82,0-9.61-7.84-16.94-17.12-16.94s-17.11,7.32-17.11,16.92c0,12.54,8.58,18.84,17.15,18.84"/>
  </g>
  <g class="cls-11">
    <polygon class="cls-3" points="428.48 78.3 426.68 78.3 404.7 78.29 406.51 78.29 428.48 78.3"/>
    <rect class="cls-3" x="404.7" y="23.72" width="1.81" height="54.57"/>
    <rect class="cls-3" x="387.92" y="1.87" width="1.81" height="21.85"/>
    <polygon class="cls-17" points="389.72 1.87 445.04 1.89 445.04 23.73 428.47 23.73 428.48 78.3 406.51 78.29 406.51 23.72 389.73 23.72 389.72 1.87"/>
  </g>
  <g class="cls-11">
    <polygon class="cls-14" points="482.47 31.64 480.67 31.64 493.58 31.64 495.39 31.64 482.47 31.64"/>
    <polygon class="cls-14" points="482.03 56.46 480.23 56.46 494.91 56.46 496.72 56.46 482.03 56.46"/>
    <polygon class="cls-3" points="496.72 23.86 494.91 23.86 480.23 23.86 482.03 23.86 496.72 23.86"/>
    <g class="cls-11">
      <g class="cls-8">
        <g class="cls-11">
          <path class="cls-23" d="M481.2,56.46h-1.81c.28,0,.56,0,.84,0h1.81c-.27,0-.55,0-.84,0"/>
        </g>
      </g>
    </g>
    <polygon class="cls-3" points="495.4 48.8 493.59 48.8 479.24 48.79 481.04 48.79 495.4 48.8"/>
    <g class="cls-11">
      <g class="cls-16">
        <g class="cls-11">
          <path class="cls-19" d="M476.56,78.33h-1.81c-1.1,0-2.12-.04-3.47-.25-10.71-1.49-18.55-10.65-18.55-21.63h1.81c0,10.98,7.84,20.13,18.55,21.63,1.36.21,2.38.25,3.47.25"/>
        </g>
      </g>
    </g>
    <rect class="cls-3" x="452.73" y="22.82" width="1.81" height="33.63"/>
    <path class="cls-17" d="M475.51,2h21.2s0,21.86,0,21.86h-14.69c-3.2,0-4.97,1.37-4.97,3.88,0,2.64,1.87,3.9,5.41,3.9h12.91s0,17.16,0,17.16h-14.35c-2.55,0-5.3.11-5.3,3.77s2.87,3.89,5.45,3.89c.28,0,.56,0,.84,0h14.69s0,21.85,0,21.85h-17.89c-.85,0-1.57.02-2.27.02-1.1,0-2.12-.04-3.47-.25-10.71-1.49-18.55-10.65-18.55-21.63V22.82c0-10.41,9.04-20.82,20.97-20.82Z"/>
    <g class="cls-11">
      <g class="cls-21">
        <g class="cls-11">
          <path class="cls-19" d="M454.53,22.82h-1.81c0-8.5,6.03-16.99,14.73-19.83h1.81c-8.7,2.83-14.73,11.33-14.73,19.83"/>
          <path class="cls-5" d="M469.27,2.99h-1.81c1.18-.39,2.42-.67,3.69-.83h1.81c-1.27.16-2.51.44-3.69.83"/>
          <path class="cls-23" d="M472.96,2.16h-1.81c.83-.11,1.68-.16,2.55-.16h1.81c-.87,0-1.72.05-2.55.16"/>
        </g>
      </g>
    </g>
  </g>
  <g class="cls-11">
    <polygon class="cls-14" points="539.34 56.25 537.53 56.25 538.64 56.25 540.44 56.25 539.34 56.25"/>
    <polygon class="cls-3" points="540.44 78.33 538.64 78.33 531.91 78.32 533.71 78.32 540.44 78.33"/>
    <g class="cls-11">
      <g class="cls-18">
        <g class="cls-11">
          <path class="cls-19" d="M533.71,78.32h-1.81c-6.74,0-12.59-2.29-17.12-6.87-5.53-5.49-7.29-11.32-7.29-19.67h1.81c0,8.35,1.76,14.18,7.29,19.67,4.53,4.58,10.38,6.87,17.12,6.87"/>
        </g>
      </g>
    </g>
    <rect class="cls-3" x="507.5" y="2.01" width="1.81" height="49.77"/>
    <path class="cls-17" d="M509.3,2.01h21.75s0,46.92,0,46.92c0,5.49,2.54,7.32,8.28,7.32h1.11s0,22.09,0,22.09h-6.73c-6.74,0-12.59-2.29-17.12-6.88-5.53-5.49-7.29-11.32-7.29-19.67V2.01Z"/>
  </g>
</svg>