<?xml version="1.0" encoding="UTF-8"?>
<svg id="Capa_1" data-name="Capa 1" xmlns="http://www.w3.org/2000/svg" xmlns:xlink="http://www.w3.org/1999/xlink" viewBox="0 0 149.25 84.29">
  <defs>
    <style>
      .cls-1 {
        stroke-width: .14px;
      }

      .cls-1, .cls-2, .cls-3, .cls-4 {
        fill: #fff;
      }

      .cls-1, .cls-5, .cls-3, .cls-4 {
        stroke-miterlimit: 10;
      }

      .cls-1, .cls-3, .cls-4 {
        stroke: #000;
      }

      .cls-6 {
        clip-path: url(#clippath-21);
      }

      .cls-7 {
        clip-path: url(#clippath-6);
      }

      .cls-8 {
        clip-path: url(#clippath-7);
      }

      .cls-9 {
        clip-path: url(#clippath-17);
      }

      .cls-10 {
        clip-path: url(#clippath-15);
      }

      .cls-11 {
        fill: #202466;
      }

      .cls-12 {
        clip-path: url(#clippath-18);
      }

      .cls-13 {
        clip-path: url(#clippath-4);
      }

      .cls-14 {
        clip-path: url(#clippath-22);
      }

      .cls-15 {
        clip-path: url(#clippath-23);
      }

      .cls-16 {
        fill: #373eb3;
      }

      .cls-17 {
        fill: #a61b1a;
      }

      .cls-18 {
        fill: #5e100f;
      }

      .cls-19 {
        clip-path: url(#clippath-9);
      }

      .cls-20 {
        clip-path: url(#clippath-10);
      }

      .cls-21 {
        clip-path: url(#clippath-11);
      }

      .cls-22, .cls-5 {
        fill: none;
      }

      .cls-5 {
        stroke: #bc1f1e;
        stroke-width: 7.68px;
      }

      .cls-3 {
        stroke-width: .14px;
      }

      .cls-4 {
        stroke-width: .13px;
      }

      .cls-23 {
        clip-path: url(#clippath-1);
      }

      .cls-24 {
        isolation: isolate;
      }

      .cls-25 {
        clip-path: url(#clippath-5);
      }

      .cls-26 {
        clip-path: url(#clippath-20);
      }

      .cls-27 {
        clip-path: url(#clippath-8);
      }

      .cls-28 {
        fill: #621010;
      }

      .cls-29 {
        clip-path: url(#clippath-3);
      }

      .cls-30 {
        clip-path: url(#clippath-12);
      }

      .cls-31 {
        clip-path: url(#clippath-14);
      }

      .cls-32 {
        clip-path: url(#clippath-19);
      }

      .cls-33 {
        fill: #21256a;
      }

      .cls-34 {
        clip-path: url(#clippath-16);
      }

      .cls-35 {
        clip-path: url(#clippath-2);
      }

      .cls-36 {
        clip-path: url(#clippath-13);
      }

      .cls-37 {
        clip-path: url(#clippath);
      }
    </style>
    <clipPath id="clippath">
      <path class="cls-22" d="M80.65,18.34l-.16.05c-.05-.35-.21-.62-.66-.62l.16-.05c.45,0,.6.27.66.62Z"/>
    </clipPath>
    <clipPath id="clippath-1">
      <path class="cls-22" d="M79.59,17.81l.16-.05c.07-.02.15-.04.24-.04l-.16.05c-.09,0-.17.01-.24.04Z"/>
    </clipPath>
    <clipPath id="clippath-2">
      <path class="cls-22" d="M80.38,21.09l-.16.05c.25-.08.35-.28.35-.53,0-.43-.23-.61-.85-.81-.99-.31-1.32-.7-1.32-1.39s.36-1.11.88-1.28l.16-.05c-.53.18-.88.62-.88,1.28s.33,1.09,1.32,1.39c.61.2.85.38.85.81,0,.25-.1.45-.35.53Z"/>
    </clipPath>
    <clipPath id="clippath-3">
      <path class="cls-22" d="M80.71,21.78l-.16.05c-.19.06-.41.1-.67.1-.93,0-1.53-.52-1.58-1.47l.16-.05c.05.94.66,1.47,1.58,1.47.26,0,.48-.03.67-.1Z"/>
    </clipPath>
    <clipPath id="clippath-4">
      <path class="cls-22" d="M16.68,54.99l.22-.11c.18-.09.41-.14.67-.14l-.22.11c-.27,0-.49.05-.67.14Z"/>
    </clipPath>
    <clipPath id="clippath-5">
      <path class="cls-22" d="M16.3,61.7l.22-.11c.23-.12.53-.12.82-.12l-.22.11c-.29,0-.59,0-.82.12Z"/>
    </clipPath>
    <clipPath id="clippath-6">
      <path class="cls-22" d="M13.89,49.43l.22-.11c-1.81.91-3.04,3.02-3.03,5.15l-.22.11c0-2.12,1.22-4.24,3.03-5.15Z"/>
    </clipPath>
    <clipPath id="clippath-7">
      <path class="cls-22" d="M16.83,69.41l-.22.11c-.22,0-.4,0-.58,0-.24,0-.48-.01-.78-.07l.22-.11c.3.06.53.07.78.07.18,0,.36,0,.58,0Z"/>
    </clipPath>
    <clipPath id="clippath-8">
      <path class="cls-22" d="M15.47,69.35l-.22.11c-2.53-.4-4.37-2.86-4.38-5.82l.22-.11c.01,2.96,1.86,5.43,4.38,5.82Z"/>
    </clipPath>
    <clipPath id="clippath-9">
      <path class="cls-22" d="M30.7,54.57l.22-.11c.46-.23.97-.36,1.5-.36,2.24,0,4.08,2.29,4.09,4.9,0,1.64-.62,2.96-1.79,4.04l-.22.11c1.17-1.08,1.79-2.4,1.79-4.04,0-2.62-1.85-4.9-4.09-4.9-.53,0-1.04.13-1.5.36Z"/>
    </clipPath>
    <clipPath id="clippath-10">
      <path class="cls-22" d="M35.61,69.25l-.22.11c-.24.12-.48.23-.72.33l.22-.11c.25-.1.49-.21.72-.33Z"/>
    </clipPath>
    <clipPath id="clippath-11">
      <path class="cls-22" d="M28.64,49.33l.22-.11c-3.27,1.63-5.56,5.43-5.56,9.72,0,4.84,2.56,8.94,6.7,10.64l-.22.11c-4.14-1.7-6.7-5.8-6.7-10.64,0-4.29,2.29-8.09,5.56-9.72Z"/>
    </clipPath>
    <clipPath id="clippath-12">
      <path class="cls-22" d="M50.75,63.52l-.22.11c.38-.19.65-.64.64-1.35l.22-.11c0,.71-.26,1.16-.64,1.35Z"/>
    </clipPath>
    <clipPath id="clippath-13">
      <path class="cls-22" d="M52.8,69.38l-.22.11c-.74.37-1.55.57-2.4.57-3.62,0-6.43-3.18-6.44-7.56l.22-.11c0,4.38,2.82,7.55,6.44,7.56.84,0,1.65-.2,2.4-.57Z"/>
    </clipPath>
    <clipPath id="clippath-14">
      <path class="cls-22" d="M74.88,56.78l-.22.11c.46-.23.7-.7.7-1.41,0-.58-.4-1.29-1.23-1.3-.14,0-.28.03-.41.1l.22-.11c.13-.07.27-.1.41-.1.84,0,1.23.71,1.23,1.3,0,.71-.23,1.17-.7,1.41Z"/>
    </clipPath>
    <clipPath id="clippath-15">
      <path class="cls-22" d="M77.79,61.87l-.22.11c-.61.3-1.27.47-1.94.47l.22-.11c.67,0,1.33-.16,1.94-.47Z"/>
    </clipPath>
    <clipPath id="clippath-16">
      <path class="cls-22" d="M71.87,49.04l.22-.11c-2.49,1.24-4.08,4.21-4.07,6.02l-.22.11c0-1.81,1.59-4.78,4.07-6.02Z"/>
    </clipPath>
    <clipPath id="clippath-17">
      <path class="cls-22" d="M93.75,63.58l-.22.11c1.35-.67,2.4-2.23,2.4-4.68,0-2.59-1.86-4.56-4.04-4.56-.58,0-1.14.14-1.64.39l.22-.11c.51-.25,1.06-.39,1.64-.39,2.19,0,4.04,1.97,4.04,4.56,0,2.45-1.05,4.01-2.4,4.68Z"/>
    </clipPath>
    <clipPath id="clippath-18">
      <path class="cls-22" d="M95.89,69.06l-.22.11c-1.19.59-2.47.89-3.76.89-4.56,0-9.13-3.71-9.14-11.15,0-4.88,2.23-8.05,5.14-9.5l.22-.11c-2.91,1.45-5.15,4.62-5.14,9.5,0,7.43,4.57,11.15,9.14,11.15,1.29,0,2.58-.3,3.76-.89Z"/>
    </clipPath>
    <clipPath id="clippath-19">
      <path class="cls-22" d="M123.71,55.03l.22-.11c.18-.09.4-.14.67-.14l-.22.11c-.27,0-.49.05-.67.14Z"/>
    </clipPath>
    <clipPath id="clippath-20">
      <path class="cls-22" d="M123.33,61.73l.22-.11c.23-.12.53-.12.82-.12l-.22.11c-.29,0-.59,0-.82.12Z"/>
    </clipPath>
    <clipPath id="clippath-21">
      <path class="cls-22" d="M120.93,49.46l.22-.11c-1.81.91-3.03,3.03-3.03,5.16l-.22.11c0-2.13,1.22-4.25,3.03-5.16Z"/>
    </clipPath>
    <clipPath id="clippath-22">
      <path class="cls-22" d="M123.86,69.45l-.22.11c-.2,0-.36,0-.52,0-.27,0-.51-.01-.84-.07-2.53-.4-4.37-2.87-4.37-5.83l.22-.11c0,2.96,1.85,5.43,4.37,5.83.33.06.57.07.84.07.16,0,.33,0,.52,0Z"/>
    </clipPath>
    <clipPath id="clippath-23">
      <path class="cls-22" d="M136.81,69.45l-.22.11c-1.59,0-2.98-.61-4.04-1.84-1.31-1.48-1.72-3.06-1.72-5.31l.22-.11c0,2.25.42,3.82,1.72,5.31,1.06,1.23,2.45,1.84,4.04,1.84Z"/>
    </clipPath>
  </defs>
  <ellipse class="cls-5" cx="74.63" cy="49.41" rx="70.79" ry="28.82"/>
  <ellipse class="cls-2" cx="74.63" cy="53.06" rx="70.79" ry="31.23"/>
  <g>
    <polygon class="cls-4" points="94.17 6.34 90.06 10.08 87.25 6.94 91.37 3.21 94.17 6.34"/>
    <polygon class="cls-1" points="60.1 10.33 54.7 6.36 57.17 2.95 62.57 6.93 60.1 10.33"/>
    <rect class="cls-3" x="54.66" y=".07" width="7.83" height="6.28"/>
    <rect class="cls-3" x="65.66" y=".07" width="7.83" height="6.28"/>
    <rect class="cls-3" x="76.28" y=".07" width="7.83" height="6.28"/>
    <rect class="cls-3" x="86.4" y=".07" width="7.83" height="6.28"/>
    <path class="cls-3" d="M90.11,37.52h-30.36c0-5.8,0-18.57,0-31.17h30.36v31.17Z"/>
    <line class="cls-3" x1="59.75" y1="10.09" x2="90.11" y2="10.08"/>
    <line class="cls-3" x1="59.76" y1="15.2" x2="90.11" y2="15.14"/>
    <line class="cls-3" x1="59.7" y1="22.95" x2="90.11" y2="23.11"/>
    <line class="cls-3" x1="59.75" y1="26.45" x2="90.11" y2="26.25"/>
    <line class="cls-3" x1="59.75" y1="30.4" x2="90.11" y2="30.17"/>
    <line class="cls-3" x1="59.76" y1="33.57" x2="90.11" y2="33.62"/>
    <line class="cls-3" x1="68.69" y1="6.35" x2="68.72" y2="10.06"/>
    <line class="cls-3" x1="79.46" y1="6.35" x2="79.5" y2="10.04"/>
    <line class="cls-3" x1="54.66" y1="3.11" x2="62.49" y2="3.11"/>
    <line class="cls-3" x1="57.55" y1=".1" x2="57.51" y2="3.11"/>
    <line class="cls-3" x1="65.66" y1="3.39" x2="73.5" y2="3.37"/>
    <line class="cls-3" x1="68.98" y1=".17" x2="69.04" y2="3.35"/>
    <line class="cls-3" x1="76.28" y1="3.21" x2="84.03" y2="3.33"/>
    <line class="cls-3" x1="80.09" y1=".04" x2="80.15" y2="3.2"/>
    <line class="cls-3" x1="86.4" y1="3.35" x2="94.15" y2="3.52"/>
    <line class="cls-3" x1="90.31" y1=".07" x2="90.27" y2="3.44"/>
    <line class="cls-3" x1="63.43" y1="10.06" x2="63.47" y2="15.14"/>
    <line class="cls-3" x1="73.55" y1="10.09" x2="73.64" y2="15.19"/>
    <line class="cls-3" x1="84.87" y1="10.08" x2="84.87" y2="15.19"/>
    <line class="cls-3" x1="84.87" y1="18.64" x2="90.11" y2="18.74"/>
    <line class="cls-3" x1="84.87" y1="23.03" x2="84.87" y2="18.64"/>
    <line class="cls-3" x1="59.76" y1="18.92" x2="64.44" y2="18.92"/>
    <line class="cls-3" x1="64.37" y1="22.97" x2="64.37" y2="18.86"/>
    <line class="cls-3" x1="64.27" y1="26.42" x2="64.27" y2="30.39"/>
    <line class="cls-3" x1="73.34" y1="26.45" x2="73.43" y2="30.19"/>
    <line class="cls-3" x1="84.77" y1="26.3" x2="84.77" y2="30.19"/>
    <line class="cls-3" x1="67.85" y1="30.4" x2="67.75" y2="33.5"/>
    <line class="cls-3" x1="84.34" y1="33.61" x2="84.34" y2="37.45"/>
    <line class="cls-3" x1="54.66" y1="6.35" x2="59.75" y2="10.09"/>
    <line class="cls-3" x1="90.11" y1="10.08" x2="94.23" y2="6.35"/>
  </g>
  <g>
    <g class="cls-24">
      <polygon class="cls-18" points="71.45 17.85 71.29 17.9 69.37 17.9 69.53 17.85 71.45 17.85"/>
      <polygon class="cls-18" points="71.37 19.74 71.22 19.79 69.37 19.79 69.53 19.74 71.37 19.74"/>
      <polygon class="cls-18" points="71.47 21.82 71.31 21.88 68.53 21.88 68.69 21.82 71.47 21.82"/>
      <polygon class="cls-18" points="68.69 21.82 68.53 21.88 68.53 17.1 68.68 17.05 68.69 21.82"/>
      <polygon class="cls-17" points="71.45 17.05 71.45 17.85 69.53 17.85 69.53 18.94 71.37 18.94 71.37 19.74 69.53 19.74 69.53 21.02 71.57 21.02 71.47 21.82 68.69 21.82 68.68 17.05 71.45 17.05"/>
    </g>
    <g class="cls-24">
      <polygon class="cls-18" points="76.52 17.85 76.36 17.9 75.21 17.9 75.37 17.85 76.52 17.85"/>
      <polygon class="cls-18" points="74.5 17.85 74.34 17.9 73.19 17.9 73.35 17.85 74.5 17.85"/>
      <polygon class="cls-18" points="73.35 17.85 73.19 17.9 73.19 17.1 73.35 17.05 73.35 17.85"/>
      <polygon class="cls-18" points="74.5 21.82 74.35 21.88 74.34 17.9 74.5 17.85 74.5 21.82"/>
      <polygon class="cls-18" points="75.38 21.82 75.22 21.88 74.35 21.88 74.5 21.82 75.38 21.82"/>
      <polygon class="cls-17" points="76.52 17.05 76.52 17.85 75.37 17.85 75.38 21.82 74.5 21.82 74.5 17.85 73.35 17.85 73.35 17.05 76.52 17.05"/>
    </g>
    <g class="cls-24">
      <polygon class="cls-18" points="81.5 18.34 81.34 18.39 80.49 18.39 80.65 18.34 81.5 18.34"/>
      <g class="cls-24">
        <g class="cls-37">
          <g class="cls-24">
            <path class="cls-28" d="M80.65,18.34l-.16.05c-.05-.35-.21-.62-.66-.62l.16-.05c.45,0,.6.27.66.62"/>
          </g>
        </g>
      </g>
      <g class="cls-24">
        <g class="cls-23">
          <g class="cls-24">
            <path class="cls-28" d="M79.99,17.72l-.16.05c-.09,0-.17.01-.24.04l.16-.05c.07-.02.15-.04.24-.04"/>
          </g>
        </g>
      </g>
      <g class="cls-24">
        <g class="cls-35">
          <g class="cls-24">
            <path class="cls-28" d="M80.38,21.09l-.16.05c.25-.08.35-.28.35-.53,0-.43-.23-.61-.85-.81-.99-.31-1.32-.7-1.32-1.39s.36-1.11.88-1.28l.16-.05c-.53.18-.88.62-.88,1.28s.33,1.09,1.32,1.39c.61.2.85.38.85.81,0,.25-.1.45-.35.53"/>
          </g>
        </g>
      </g>
      <g class="cls-24">
        <g class="cls-29">
          <g class="cls-24">
            <path class="cls-28" d="M80.71,21.78l-.16.05c-.19.06-.41.1-.67.1-.93,0-1.53-.52-1.58-1.47l.16-.05c.05.94.66,1.47,1.58,1.47.26,0,.48-.03.67-.1"/>
          </g>
        </g>
      </g>
      <path class="cls-17" d="M80,16.98c1.02,0,1.45.59,1.5,1.36h-.85c-.05-.35-.21-.62-.66-.62-.38,0-.57.21-.57.53,0,.36.22.46.81.66,1.09.36,1.38.85,1.38,1.53,0,.78-.46,1.44-1.57,1.44-.93,0-1.53-.52-1.58-1.47h.85c.06.43.32.72.76.72.49,0,.66-.24.66-.58,0-.43-.23-.61-.85-.81-.99-.31-1.32-.7-1.32-1.39,0-.88.63-1.37,1.44-1.37Z"/>
    </g>
  </g>
  <g>
    <g class="cls-24">
      <polygon class="cls-11" points="21.04 54.75 20.82 54.86 17.35 54.86 17.58 54.75 21.04 54.75"/>
      <g class="cls-24">
        <g class="cls-13">
          <g class="cls-24">
            <path class="cls-33" d="M17.58,54.75l-.22.11c-.27,0-.49.05-.67.14l.22-.11c.18-.09.41-.14.67-.14"/>
          </g>
        </g>
      </g>
      <polygon class="cls-11" points="20.73 61.47 20.51 61.58 17.12 61.58 17.35 61.47 20.73 61.47"/>
      <g class="cls-24">
        <g class="cls-25">
          <g class="cls-24">
            <path class="cls-33" d="M17.35,61.47l-.22.11c-.29,0-.59,0-.82.12l.22-.11c.23-.12.53-.12.82-.12"/>
          </g>
        </g>
      </g>
      <g class="cls-24">
        <g class="cls-7">
          <g class="cls-24">
            <path class="cls-33" d="M11.08,54.47l-.22.11c0-2.12,1.22-4.24,3.03-5.15l.22-.11c-1.81.91-3.04,3.02-3.03,5.15"/>
          </g>
        </g>
      </g>
      <polygon class="cls-11" points="21.05 69.41 20.83 69.52 16.61 69.52 16.83 69.41 21.05 69.41"/>
      <g class="cls-24">
        <g class="cls-8">
          <g class="cls-24">
            <path class="cls-33" d="M16.83,69.41l-.22.11c-.22,0-.4,0-.58,0-.24,0-.48-.01-.78-.07l.22-.11c.3.06.53.07.78.07.18,0,.36,0,.58,0"/>
          </g>
        </g>
      </g>
      <polygon class="cls-11" points="11.09 63.53 10.87 63.64 10.86 54.58 11.08 54.47 11.09 63.53"/>
      <path class="cls-16" d="M21.04,48.86v5.89s-3.46,0-3.46,0c-.76,0-1.18.37-1.18,1.04,0,.71.45,1.05,1.28,1.05h3.05s0,4.63,0,4.63h-3.38c-.6,0-1.25.03-1.25,1.02s.67,1.04,1.28,1.04c.07,0,.14,0,.21,0h3.46s0,5.89,0,5.89h-4.22c-.22,0-.4,0-.58,0-.24,0-.48-.01-.78-.07-2.53-.4-4.37-2.86-4.38-5.82v-9.06c0-2.81,2.13-5.61,4.95-5.61h5Z"/>
      <g class="cls-24">
        <g class="cls-27">
          <g class="cls-24">
            <path class="cls-33" d="M15.47,69.35l-.22.11c-2.53-.4-4.37-2.86-4.38-5.82l.22-.11c.01,2.96,1.86,5.43,4.38,5.82"/>
          </g>
        </g>
      </g>
    </g>
    <g class="cls-24">
      <g class="cls-24">
        <g class="cls-19">
          <g class="cls-24">
            <path class="cls-33" d="M34.72,63.04l-.22.11c1.17-1.08,1.79-2.4,1.79-4.04,0-2.62-1.85-4.9-4.09-4.9-.53,0-1.04.13-1.5.36l.22-.11c.46-.23.97-.36,1.5-.36,2.24,0,4.08,2.29,4.09,4.9,0,1.64-.62,2.96-1.79,4.04"/>
          </g>
        </g>
      </g>
      <g class="cls-24">
        <g class="cls-20">
          <g class="cls-24">
            <path class="cls-33" d="M35.61,69.25l-.22.11c-.24.12-.48.23-.72.33l.22-.11c.25-.1.49-.21.72-.33"/>
          </g>
        </g>
      </g>
      <polygon class="cls-11" points="30.14 63.04 29.92 63.15 29.91 60.87 30.14 60.76 30.14 63.04"/>
      <polygon class="cls-11" points="30.01 71.3 29.79 71.41 29.78 69.69 30.01 69.58 30.01 71.3"/>
      <polygon class="cls-11" points="34.88 71.3 34.66 71.41 29.79 71.41 30.01 71.3 34.88 71.3"/>
      <g class="cls-24">
        <g class="cls-21">
          <g class="cls-24">
            <path class="cls-33" d="M30.01,69.58l-.22.11c-4.14-1.7-6.7-5.8-6.7-10.64,0-4.29,2.29-8.09,5.56-9.72l.22-.11c-3.27,1.63-5.56,5.43-5.56,9.72,0,4.84,2.56,8.94,6.7,10.64"/>
          </g>
        </g>
      </g>
      <path class="cls-16" d="M32.42,48.37c5,0,9.1,4.84,9.1,10.58,0,4.83-2.5,8.94-6.64,10.63v1.73s-4.87,0-4.87,0v-1.73c-4.14-1.7-6.7-5.8-6.7-10.64,0-5.73,4.09-10.57,9.11-10.57ZM34.72,63.04c1.17-1.08,1.79-2.4,1.79-4.04,0-2.62-1.85-4.9-4.09-4.9-2.24,0-4.04,2.29-4.04,4.9,0,1.63.58,2.99,1.75,4.04v-2.29s4.59,0,4.59,0v2.29"/>
    </g>
    <g class="cls-24">
      <polygon class="cls-11" points="51.39 62.18 51.17 62.29 51.16 48.98 51.38 48.87 51.39 62.18"/>
      <g class="cls-24">
        <g class="cls-30">
          <g class="cls-24">
            <path class="cls-33" d="M50.75,63.52l-.22.11c.38-.19.65-.64.64-1.35l.22-.11c0,.71-.26,1.16-.64,1.35"/>
          </g>
        </g>
      </g>
      <polygon class="cls-11" points="43.97 62.39 43.75 62.51 43.74 48.98 43.96 48.87 43.97 62.39"/>
      <g class="cls-24">
        <g class="cls-36">
          <g class="cls-24">
            <path class="cls-33" d="M52.8,69.38l-.22.11c-.74.37-1.55.57-2.4.57-3.62,0-6.43-3.18-6.44-7.56l.22-.11c0,4.38,2.82,7.55,6.44,7.56.84,0,1.65-.2,2.4-.57"/>
          </g>
        </g>
      </g>
      <path class="cls-16" d="M56.52,48.87v13.53c.01,4.53-2.83,7.55-6.11,7.55-3.62,0-6.43-3.18-6.44-7.56v-13.52s5.17,0,5.17,0v13.31c0,.86.46,1.45,1.16,1.45.59,0,1.1-.49,1.09-1.45v-13.31s5.13,0,5.13,0Z"/>
    </g>
    <g class="cls-24">
      <polygon class="cls-11" points="64.9 69.43 64.67 69.54 59.44 69.54 59.66 69.43 64.9 69.43"/>
      <polygon class="cls-11" points="59.66 69.43 59.44 69.54 59.43 48.98 59.65 48.87 59.66 69.43"/>
      <rect class="cls-16" x="59.65" y="48.87" width="5.23" height="20.56"/>
    </g>
    <g class="cls-24">
      <g class="cls-24">
        <g class="cls-31">
          <g class="cls-24">
            <path class="cls-33" d="M74.88,56.78l-.22.11c.46-.23.7-.7.7-1.41,0-.58-.4-1.29-1.23-1.3-.14,0-.28.03-.41.1l.22-.11c.13-.07.27-.1.41-.1.84,0,1.23.71,1.23,1.3,0,.71-.23,1.17-.7,1.41"/>
          </g>
        </g>
      </g>
      <g class="cls-24">
        <g class="cls-10">
          <g class="cls-24">
            <path class="cls-33" d="M77.79,61.87l-.22.11c-.61.3-1.27.47-1.94.47l.22-.11c.67,0,1.33-.16,1.94-.47"/>
          </g>
        </g>
      </g>
      <polygon class="cls-11" points="74.04 62.34 73.82 62.45 73.81 57.06 74.04 56.95 74.04 62.34"/>
      <polygon class="cls-11" points="75.86 62.34 75.63 62.45 73.82 62.45 74.04 62.34 75.86 62.34"/>
      <g class="cls-24">
        <g class="cls-34">
          <g class="cls-24">
            <path class="cls-33" d="M68.02,54.94l-.22.11c0-1.81,1.59-4.78,4.07-6.02l.22-.11c-2.49,1.24-4.08,4.21-4.07,6.02"/>
          </g>
        </g>
      </g>
      <polygon class="cls-11" points="68.03 69.43 67.8 69.54 67.8 55.05 68.02 54.94 68.03 69.43"/>
      <polygon class="cls-11" points="73.21 69.43 72.99 69.54 67.8 69.54 68.03 69.43 73.21 69.43"/>
      <path class="cls-16" d="M74.47,48.35c4.11,0,6.62,3.99,6.62,7.34,0,3.91-2.5,6.66-5.24,6.65h-1.82s0-5.39,0-5.39c1.02,0,1.54-.52,1.54-1.57,0-.58-.4-1.29-1.23-1.3-.59,0-1.14.56-1.14,1.73v13.62s-5.17,0-5.17,0v-14.49c-.01-2.34,2.64-6.6,6.45-6.6Z"/>
    </g>
    <g class="cls-24">
      <g class="cls-24">
        <g class="cls-9">
          <g class="cls-24">
            <path class="cls-33" d="M93.75,63.58l-.22.11c1.35-.67,2.4-2.23,2.4-4.68,0-2.59-1.86-4.56-4.04-4.56-.58,0-1.14.14-1.64.39l.22-.11c.51-.25,1.06-.39,1.64-.39,2.19,0,4.04,1.97,4.04,4.56,0,2.45-1.05,4.01-2.4,4.68"/>
          </g>
        </g>
      </g>
      <g class="cls-24">
        <g class="cls-12">
          <g class="cls-24">
            <path class="cls-33" d="M95.89,69.06l-.22.11c-1.19.59-2.47.89-3.76.89-4.56,0-9.13-3.71-9.14-11.15,0-4.88,2.23-8.05,5.14-9.5l.22-.11c-2.91,1.45-5.15,4.62-5.14,9.5,0,7.43,4.57,11.15,9.14,11.15,1.29,0,2.58-.3,3.76-.89"/>
          </g>
        </g>
      </g>
      <path class="cls-16" d="M92.09,48.37c4.57,0,9.14,3.49,9.14,10.47,0,7.41-4.55,11.11-9.11,11.11s-9.13-3.71-9.14-11.15c0-6.96,4.54-10.43,9.1-10.43ZM92.13,63.97c2.02,0,4.03-1.68,4.03-5.07,0-2.59-1.86-4.56-4.04-4.56-2.19,0-4.04,1.97-4.04,4.55,0,3.38,2.03,5.08,4.05,5.08"/>
    </g>
    <g class="cls-24">
      <polygon class="cls-11" points="115.88 54.75 115.66 54.86 111.74 54.86 111.96 54.75 115.88 54.75"/>
      <polygon class="cls-11" points="106.78 54.75 106.56 54.86 102.6 54.85 102.82 54.74 106.78 54.75"/>
      <polygon class="cls-11" points="102.82 54.74 102.6 54.85 102.59 48.96 102.81 48.85 102.82 54.74"/>
      <polygon class="cls-11" points="106.79 69.44 106.57 69.55 106.56 54.86 106.78 54.75 106.79 69.44"/>
      <polygon class="cls-11" points="111.97 69.44 111.75 69.55 106.57 69.55 106.79 69.44 111.97 69.44"/>
      <polygon class="cls-16" points="102.81 48.85 115.87 48.86 115.88 54.75 111.96 54.75 111.97 69.44 106.79 69.44 106.78 54.75 102.82 54.74 102.81 48.85"/>
    </g>
    <g class="cls-24">
      <polygon class="cls-11" points="128.06 54.78 127.84 54.89 124.38 54.89 124.6 54.78 128.06 54.78"/>
      <g class="cls-24">
        <g class="cls-32">
          <g class="cls-24">
            <path class="cls-33" d="M124.6,54.78l-.22.11c-.27,0-.49.05-.67.14l.22-.11c.18-.09.4-.14.67-.14"/>
          </g>
        </g>
      </g>
      <polygon class="cls-11" points="127.75 61.49 127.53 61.61 124.15 61.61 124.37 61.49 127.75 61.49"/>
      <g class="cls-24">
        <g class="cls-26">
          <g class="cls-24">
            <path class="cls-33" d="M124.37,61.49l-.22.11c-.29,0-.59,0-.82.12l.22-.11c.23-.12.53-.12.82-.12"/>
          </g>
        </g>
      </g>
      <g class="cls-24">
        <g class="cls-6">
          <g class="cls-24">
            <path class="cls-33" d="M118.12,54.5l-.22.11c0-2.13,1.22-4.25,3.03-5.16l.22-.11c-1.81.91-3.03,3.03-3.03,5.16"/>
          </g>
        </g>
      </g>
      <polygon class="cls-11" points="128.07 69.45 127.85 69.56 123.63 69.56 123.86 69.45 128.07 69.45"/>
      <polygon class="cls-11" points="118.12 63.55 117.9 63.67 117.89 54.61 118.12 54.5 118.12 63.55"/>
      <path class="cls-16" d="M123.06,48.89h5s0,5.89,0,5.89h-3.46c-.76,0-1.17.37-1.17,1.04,0,.71.44,1.04,1.28,1.04h3.04s0,4.63,0,4.63h-3.38c-.6,0-1.25.04-1.25,1.02s.7,1.05,1.31,1.05c.06,0,.12,0,.18,0h3.46s0,5.89,0,5.89h-4.22c-.2,0-.36,0-.52,0-.27,0-.51-.01-.84-.07-2.53-.4-4.37-2.87-4.37-5.83v-9.05c0-2.81,2.12-5.62,4.94-5.62Z"/>
      <g class="cls-24">
        <g class="cls-14">
          <g class="cls-24">
            <path class="cls-33" d="M123.86,69.45l-.22.11c-.2,0-.36,0-.52,0-.27,0-.51-.01-.84-.07-2.53-.4-4.37-2.87-4.37-5.83l.22-.11c0,2.96,1.85,5.43,4.37,5.83.33.06.57.07.84.07.16,0,.33,0,.52,0"/>
          </g>
        </g>
      </g>
    </g>
    <g class="cls-24">
      <polygon class="cls-11" points="138.39 69.45 138.17 69.56 136.59 69.56 136.81 69.45 138.39 69.45"/>
      <polygon class="cls-11" points="131.05 62.3 130.82 62.41 130.81 49.01 131.03 48.9 131.05 62.3"/>
      <g class="cls-24">
        <g class="cls-15">
          <g class="cls-24">
            <path class="cls-33" d="M136.81,69.45l-.22.11c-1.59,0-2.98-.61-4.04-1.84-1.31-1.48-1.72-3.06-1.72-5.31l.22-.11c0,2.25.42,3.82,1.72,5.31,1.06,1.23,2.45,1.84,4.04,1.84"/>
          </g>
        </g>
      </g>
      <path class="cls-16" d="M136.17,48.9v12.63c0,1.48.61,1.97,1.96,1.97h.26s0,5.95,0,5.95h-1.58c-1.59,0-2.98-.61-4.04-1.84-1.31-1.48-1.72-3.06-1.72-5.31l-.02-13.4h5.14Z"/>
    </g>
  </g>
</svg>